<svg xmlns="http://www.w3.org/2000/svg" fill="none" viewBox="0 0 541 126" height="126" width="541">
<g clip-path="url(#clip0_403_1749)">
<path fill="#F5AC3C" d="M413.45 23.48C382.81 23.48 362.82 43.91 362.82 75.47C362.82 104.77 380.44 125.61 413.92 125.61C436.48 125.61 450.73 115.91 456.67 97.14L455.01 95.49C449.55 99.82 441.23 101.68 432.69 101.68C413.45 101.68 400.86 92.19 396.35 74.86C412.42 75.03 458.67 74.55 458.67 74.55C458.67 74.55 464.13 23.49 413.45 23.49V23.48ZM424.1 65.43H394.58C394.34 63.04 394.21 60.54 394.21 57.93C394.21 38.53 401.33 30.6 410.83 30.6C420.33 30.6 425.41 46.99 424.09 65.43H424.1Z"></path>
<path fill="#F5AC3C" d="M539.63 99.94C531.13 104.65 521.52 104.05 516.54 102.84C507.31 100.59 502.78 89.85 502.78 78.69V37.84H529.4C531.79 37.84 533.72 35.91 533.72 33.52V30.17H503.05L503.17 0.73999H498.08C498.08 0.73999 497.09 16.73 483.52 25.2C467.42 35.25 456.38 32.58 456.38 32.58V38.15H463.74C466.85 38.21 467.14 40.52 467.14 41.7V74.86C467.14 91.02 469.33 103.74 473.8 110.23C479.09 117.91 486.85 124.49 500.23 125.27C509.34 125.8 515.56 124.4 521.85 121.38C528.89 117.99 535.51 112.3 540.77 101.86L539.65 99.94H539.63Z"></path>
<path fill="#F5AC3C" d="M354.79 47.82C355.26 31.52 343.86 23.47 327.72 23.47C312.76 23.47 300.88 30.07 293.76 33.58L286.87 37.29C283.07 28.01 273.81 23.47 261.7 23.47C246.74 23.47 234.63 30.07 227.74 33.58L222.85 36.17V24.86H187.81V124.01H222.85V54.92C222.89 51.12 222.93 47.64 222.99 44.64C228.45 40.72 235.1 37.21 241.04 37.21C250.54 37.21 253.39 42.99 253.63 53.72C254.34 73.53 253.57 124.01 253.57 124.01H289.05C289.05 124.01 288.54 72.7 288.78 52.06C288.78 49.58 288.54 47.32 288.07 45.25C293.53 41.12 300.89 37.2 307.31 37.2C316.57 37.2 319.42 42.98 319.66 53.71C320.28 70.92 320.54 85.56 319.97 104V124H355.37C355.37 124 354.33 68.45 354.8 47.82H354.79Z"></path>
<path fill="#F5AC3C" d="M126.54 23.69C99.5401 26.24 79.4701 48.86 82.1001 76.64C82.3401 79.14 83.8201 83.65 85.9701 85.87C88.2501 88.22 91.9001 91 99.8201 92.65C108.56 94.48 112.78 91.17 114.36 88.2C114.92 87.16 114.77 85.37 114.72 84.1C114.27 71.81 112.27 54.24 117.32 42.28C120.09 35.72 124.91 32.5 128.52 32.16C139.56 31.12 143.1 41.39 144.73 58.66C146.99 82.6 134.97 99.77 111.31 102.01C104.1 102.69 95.8001 101.5 90.6901 98.02C90.6901 98.02 88.9301 99.43 88.9901 99.55C98.4201 115.99 116.45 126.34 136.06 124.49C163.06 121.94 182.9 97.25 180.27 69.47C177.64 41.68 153.53 21.16 126.53 23.71L126.54 23.69Z"></path>
<path fill="#F5AC3C" d="M90.71 98.18C85.54 101.98 76.95 103.53 69.43 103.09C44.75 101.64 31.63 84.24 33.09 59.29C34.15 41.29 40.9 32.59 52.44 32.59C58.37 32.59 61.77 37.57 65.61 43.76C68.84 48.98 71.72 59.0101 73.5 65.5401C73.5 65.5401 75.37 55.02 79.72 45.41C83.34 37.42 89.43 31.23 89.43 31.23C80.69 27.98 73.68 25.75 60.58 24.98C58.64 24.87 56.74 24.83 54.87 24.85C38.88 25.01 25.56 29.93 15.84 38.05C6.83005 46.62 0.890046 58.62 0.0900457 72.19C-1.34995 96.76 14.54 118.22 36.91 124.06C39.92 124.84 43.03 125.36 46.25 125.54C46.58 125.56 46.91 125.56 47.24 125.57C66.32 126.3 83.39 115.75 92.17 99.61L90.71 98.18Z"></path>
</g>
<defs>
<clipPath id="clip0_403_1749">
<rect transform="translate(0 0.73999)" fill="white" height="124.87" width="540.75"></rect>
</clipPath>
</defs>
</svg>
