<svg version="1.1" viewBox="0 0 100 145" height="146px" width="100px" xmlns:xlink="http://www.w3.org/1999/xlink" xmlns="http://www.w3.org/2000/svg">
<g id="surface1">
<path d="M 35.261719 48.492188 L 49.839844 48.492188 C 53.386719 48.492188 58.0625 48.492188 60.476562 49.945312 C 63.125 51.511719 65.203125 54.359375 65.203125 58.28125 C 65.203125 62.527344 62.957031 65.714844 59.234375 67.222656 L 59.234375 67.335938 C 64.1875 68.34375 66.886719 72.03125 66.886719 76.953125 C 66.886719 82.820312 62.664062 88.414062 54.675781 88.414062 L 35.261719 88.414062 Z M 40.609375 65.648438 L 51.3125 65.648438 C 57.390625 65.648438 59.871094 63.46875 59.871094 59.273438 C 59.871094 53.738281 55.929688 52.953125 51.3125 52.953125 L 40.609375 52.953125 Z M 40.609375 83.929688 L 54.011719 83.929688 C 58.621094 83.929688 61.554688 81.132812 61.554688 76.777344 C 61.554688 71.574219 57.332031 70.125 52.832031 70.125 L 40.609375 70.125 Z M 40.609375 83.929688" style="stroke:none;fill-rule:nonzero;fill:rgb(0%,0%,0%);fill-opacity:1;"></path>
<path d="M 80.566406 68.460938 C 80.566406 85.226562 66.882812 98.820312 49.992188 98.820312 C 33.113281 98.820312 19.425781 85.226562 19.425781 68.460938 C 19.425781 51.691406 33.113281 38.097656 49.992188 38.097656 C 66.882812 38.105469 80.566406 51.699219 80.566406 68.460938 Z M 50 33.476562 C 30.558594 33.476562 14.792969 49.136719 14.792969 68.445312 C 14.792969 87.757812 30.558594 103.414062 50 103.414062 C 69.449219 103.414062 85.214844 87.757812 85.214844 68.445312 C 85.214844 49.136719 69.449219 33.476562 50 33.476562 Z M 50 33.476562" style="stroke:none;fill-rule:nonzero;fill:rgb(0%,0%,0%);fill-opacity:1;"></path>
<path d="M 14.859375 110.796875 L 85.132812 110.796875 L 85.132812 115.386719 L 14.859375 115.386719 Z M 14.859375 110.796875" style="stroke:none;fill-rule:nonzero;fill:rgb(0%,0%,0%);fill-opacity:1;"></path>
<path d="M 82.9375 105.75 C 83.027344 105.75 83.105469 105.742188 83.1875 105.742188 C 83.257812 105.734375 83.332031 105.71875 83.390625 105.699219 C 83.457031 105.667969 83.5 105.625 83.535156 105.574219 C 83.574219 105.515625 83.585938 105.445312 83.585938 105.351562 C 83.585938 105.269531 83.574219 105.199219 83.542969 105.152344 C 83.515625 105.101562 83.46875 105.066406 83.417969 105.046875 C 83.367188 105.015625 83.316406 105.003906 83.246094 104.988281 C 83.179688 104.980469 83.121094 104.980469 83.046875 104.980469 L 82.542969 104.980469 L 82.542969 105.753906 L 82.9375 105.753906 Z M 83.105469 104.660156 C 83.398438 104.660156 83.609375 104.71875 83.753906 104.835938 C 83.894531 104.953125 83.964844 105.125 83.964844 105.363281 C 83.964844 105.589844 83.902344 105.742188 83.785156 105.851562 C 83.660156 105.953125 83.507812 106.007812 83.316406 106.03125 L 84.019531 107.101562 L 83.609375 107.101562 L 82.9375 106.050781 L 82.535156 106.050781 L 82.535156 107.101562 L 82.148438 107.101562 L 82.148438 104.667969 L 83.105469 104.667969 Z M 81.382812 106.582031 C 81.464844 106.800781 81.589844 106.996094 81.75 107.152344 C 81.902344 107.3125 82.085938 107.4375 82.296875 107.53125 C 82.5 107.617188 82.734375 107.660156 82.972656 107.660156 C 83.222656 107.660156 83.449219 107.617188 83.652344 107.53125 C 83.863281 107.4375 84.046875 107.3125 84.199219 107.152344 C 84.351562 106.996094 84.476562 106.804688 84.558594 106.582031 C 84.644531 106.363281 84.695312 106.132812 84.695312 105.878906 C 84.695312 105.625 84.652344 105.394531 84.558594 105.175781 C 84.46875 104.957031 84.347656 104.769531 84.199219 104.609375 C 84.039062 104.453125 83.855469 104.328125 83.652344 104.242188 C 83.449219 104.152344 83.214844 104.101562 82.972656 104.101562 C 82.734375 104.101562 82.5 104.152344 82.296875 104.242188 C 82.085938 104.335938 81.894531 104.457031 81.75 104.609375 C 81.589844 104.769531 81.472656 104.957031 81.382812 105.175781 C 81.296875 105.394531 81.253906 105.617188 81.253906 105.878906 C 81.246094 106.125 81.289062 106.363281 81.382812 106.582031 M 81.035156 105.050781 C 81.144531 104.800781 81.296875 104.589844 81.488281 104.402344 C 81.675781 104.210938 81.902344 104.074219 82.15625 103.964844 C 82.414062 103.855469 82.691406 103.804688 82.96875 103.804688 C 83.257812 103.804688 83.527344 103.855469 83.792969 103.964844 C 84.039062 104.074219 84.265625 104.210938 84.449219 104.402344 C 84.636719 104.589844 84.796875 104.804688 84.902344 105.050781 C 85.015625 105.304688 85.066406 105.582031 85.066406 105.878906 C 85.066406 106.175781 85.015625 106.453125 84.902344 106.703125 C 84.792969 106.964844 84.636719 107.183594 84.449219 107.371094 C 84.257812 107.566406 84.039062 107.703125 83.792969 107.8125 C 83.527344 107.914062 83.257812 107.964844 82.96875 107.964844 C 82.683594 107.964844 82.414062 107.914062 82.15625 107.8125 C 81.902344 107.703125 81.675781 107.566406 81.488281 107.371094 C 81.296875 107.183594 81.144531 106.964844 81.035156 106.703125 C 80.917969 106.453125 80.875 106.175781 80.875 105.878906 C 80.867188 105.582031 80.917969 105.304688 81.035156 105.050781" style="stroke:none;fill-rule:nonzero;fill:rgb(0%,0%,0%);fill-opacity:1;"></path>
<path d="M 23.378906 18.101562 C 23.210938 17.832031 23.007812 17.601562 22.757812 17.40625 C 22.511719 17.203125 22.226562 17.050781 21.914062 16.933594 C 21.597656 16.824219 21.269531 16.765625 20.929688 16.765625 C 20.300781 16.765625 19.769531 16.890625 19.324219 17.128906 C 18.886719 17.367188 18.527344 17.695312 18.257812 18.101562 C 17.988281 18.507812 17.785156 18.96875 17.660156 19.492188 C 17.535156 20.011719 17.46875 20.550781 17.46875 21.101562 C 17.46875 21.628906 17.527344 22.144531 17.660156 22.644531 C 17.785156 23.144531 17.980469 23.59375 18.257812 24 C 18.527344 24.398438 18.886719 24.722656 19.324219 24.960938 C 19.761719 25.203125 20.292969 25.324219 20.929688 25.324219 C 21.78125 25.324219 22.453125 25.0625 22.925781 24.550781 C 23.410156 24.027344 23.699219 23.347656 23.808594 22.5 L 26.515625 22.5 C 26.445312 23.289062 26.261719 24 25.960938 24.636719 C 25.664062 25.273438 25.277344 25.816406 24.789062 26.257812 C 24.296875 26.707031 23.730469 27.050781 23.082031 27.289062 C 22.429688 27.519531 21.710938 27.644531 20.929688 27.644531 C 19.957031 27.644531 19.082031 27.476562 18.300781 27.136719 C 17.523438 26.804688 16.871094 26.339844 16.332031 25.746094 C 15.800781 25.15625 15.390625 24.460938 15.105469 23.664062 C 14.824219 22.867188 14.675781 22.011719 14.675781 21.09375 C 14.675781 20.152344 14.816406 19.273438 15.105469 18.46875 C 15.390625 17.664062 15.800781 16.957031 16.332031 16.363281 C 16.863281 15.761719 17.523438 15.289062 18.300781 14.949219 C 19.074219 14.609375 19.949219 14.433594 20.929688 14.433594 C 21.628906 14.433594 22.292969 14.535156 22.914062 14.730469 C 23.53125 14.933594 24.09375 15.222656 24.582031 15.609375 C 25.070312 15.992188 25.480469 16.464844 25.800781 17.027344 C 26.121094 17.59375 26.328125 18.246094 26.40625 18.96875 L 23.699219 18.96875 C 23.648438 18.652344 23.546875 18.363281 23.378906 18.101562 Z M 23.378906 18.101562" style="stroke:none;fill-rule:nonzero;fill:rgb(0%,0%,0%);fill-opacity:1;"></path>
<path d="M 30.15625 25.15625 C 30.535156 25.519531 31.082031 25.707031 31.792969 25.707031 C 32.300781 25.707031 32.738281 25.585938 33.113281 25.332031 C 33.476562 25.078125 33.703125 24.808594 33.789062 24.527344 L 36.015625 24.527344 C 35.65625 25.621094 35.109375 26.410156 34.375 26.882812 C 33.636719 27.355469 32.746094 27.59375 31.703125 27.59375 C 30.980469 27.59375 30.324219 27.476562 29.75 27.246094 C 29.164062 27.011719 28.675781 26.6875 28.265625 26.265625 C 27.867188 25.847656 27.550781 25.339844 27.332031 24.746094 C 27.113281 24.160156 27.003906 23.507812 27.003906 22.804688 C 27.003906 22.121094 27.113281 21.484375 27.339844 20.898438 C 27.566406 20.3125 27.886719 19.796875 28.304688 19.367188 C 28.71875 18.941406 29.214844 18.601562 29.792969 18.355469 C 30.367188 18.109375 31.003906 17.984375 31.703125 17.984375 C 32.484375 17.984375 33.167969 18.136719 33.753906 18.433594 C 34.335938 18.738281 34.8125 19.136719 35.183594 19.644531 C 35.554688 20.152344 35.824219 20.730469 35.992188 21.375 C 36.160156 22.019531 36.21875 22.703125 36.167969 23.410156 L 29.53125 23.410156 C 29.566406 24.203125 29.769531 24.796875 30.15625 25.15625 Z M 33.007812 20.355469 C 32.703125 20.027344 32.242188 19.859375 31.628906 19.859375 C 31.230469 19.859375 30.894531 19.925781 30.625 20.0625 C 30.355469 20.203125 30.140625 20.367188 29.980469 20.5625 C 29.820312 20.765625 29.710938 20.976562 29.644531 21.203125 C 29.582031 21.425781 29.542969 21.621094 29.53125 21.804688 L 33.644531 21.804688 C 33.527344 21.164062 33.316406 20.679688 33.007812 20.355469 Z M 33.007812 20.355469" style="stroke:none;fill-rule:nonzero;fill:rgb(0%,0%,0%);fill-opacity:1;"></path>
<path d="M 39.714844 18.210938 L 39.714844 19.90625 L 39.75 19.90625 C 39.867188 19.621094 40.027344 19.363281 40.230469 19.113281 C 40.4375 18.875 40.660156 18.664062 40.925781 18.5 C 41.1875 18.332031 41.464844 18.195312 41.761719 18.101562 C 42.0625 18.007812 42.371094 17.960938 42.691406 17.960938 C 42.859375 17.960938 43.039062 17.992188 43.246094 18.050781 L 43.246094 20.382812 C 43.128906 20.359375 42.980469 20.339844 42.8125 20.324219 C 42.644531 20.3125 42.484375 20.296875 42.332031 20.296875 C 41.875 20.296875 41.480469 20.375 41.15625 20.527344 C 40.835938 20.679688 40.582031 20.890625 40.386719 21.160156 C 40.1875 21.425781 40.050781 21.730469 39.96875 22.085938 C 39.890625 22.441406 39.84375 22.824219 39.84375 23.238281 L 39.84375 27.359375 L 37.320312 27.359375 L 37.320312 18.210938 Z M 39.714844 18.210938" style="stroke:none;fill-rule:nonzero;fill:rgb(0%,0%,0%);fill-opacity:1;"></path>
<path d="M 50 18.210938 L 50 19.890625 L 48.148438 19.890625 L 48.148438 24.417969 C 48.148438 24.847656 48.21875 25.128906 48.359375 25.265625 C 48.496094 25.40625 48.789062 25.476562 49.210938 25.476562 C 49.359375 25.476562 49.488281 25.46875 49.621094 25.460938 C 49.753906 25.449219 49.875 25.433594 49.992188 25.410156 L 49.992188 27.355469 C 49.78125 27.390625 49.539062 27.410156 49.277344 27.425781 C 49.015625 27.441406 48.761719 27.449219 48.511719 27.449219 C 48.117188 27.449219 47.746094 27.417969 47.402344 27.367188 C 47.050781 27.316406 46.746094 27.214844 46.476562 27.054688 C 46.207031 26.90625 46.003906 26.6875 45.839844 26.40625 C 45.6875 26.121094 45.609375 25.753906 45.609375 25.289062 L 45.609375 19.898438 L 44.078125 19.898438 L 44.078125 18.214844 L 45.609375 18.214844 L 45.609375 15.476562 L 48.132812 15.476562 L 48.132812 18.214844 L 50 18.214844 Z M 50 18.210938" style="stroke:none;fill-rule:nonzero;fill:rgb(0%,0%,0%);fill-opacity:1;"></path>
<path d="M 51.472656 16.796875 L 51.472656 14.722656 L 53.996094 14.722656 L 53.996094 16.796875 Z M 53.996094 18.210938 L 53.996094 27.347656 L 51.472656 27.347656 L 51.472656 18.210938 Z M 53.996094 18.210938" style="stroke:none;fill-rule:nonzero;fill:rgb(0%,0%,0%);fill-opacity:1;"></path>
<path d="M 55.003906 19.890625 L 55.003906 18.210938 L 56.515625 18.210938 L 56.515625 17.5 C 56.515625 16.6875 56.769531 16.019531 57.28125 15.5 C 57.792969 14.976562 58.566406 14.722656 59.59375 14.722656 C 59.820312 14.722656 60.046875 14.730469 60.273438 14.753906 C 60.496094 14.765625 60.714844 14.789062 60.929688 14.796875 L 60.929688 16.671875 C 60.628906 16.636719 60.324219 16.621094 60 16.621094 C 59.660156 16.621094 59.410156 16.703125 59.265625 16.863281 C 59.117188 17.019531 59.046875 17.289062 59.046875 17.664062 L 59.046875 18.214844 L 60.789062 18.214844 L 60.789062 19.898438 L 59.046875 19.898438 L 59.046875 27.359375 L 56.515625 27.359375 L 56.515625 19.898438 L 55.003906 19.898438 Z M 55.003906 19.890625" style="stroke:none;fill-rule:nonzero;fill:rgb(0%,0%,0%);fill-opacity:1;"></path>
<path d="M 62.496094 16.796875 L 62.496094 14.722656 L 65.019531 14.722656 L 65.019531 16.796875 Z M 65.027344 18.210938 L 65.027344 27.347656 L 62.496094 27.347656 L 62.496094 18.210938 Z M 65.027344 18.210938" style="stroke:none;fill-rule:nonzero;fill:rgb(0%,0%,0%);fill-opacity:1;"></path>
<path d="M 69.011719 25.15625 C 69.390625 25.519531 69.9375 25.707031 70.644531 25.707031 C 71.15625 25.707031 71.59375 25.585938 71.964844 25.332031 C 72.332031 25.078125 72.558594 24.808594 72.644531 24.527344 L 74.871094 24.527344 C 74.511719 25.621094 73.964844 26.410156 73.234375 26.882812 C 72.5 27.355469 71.609375 27.59375 70.566406 27.59375 C 69.84375 27.59375 69.1875 27.476562 68.609375 27.246094 C 68.027344 27.011719 67.539062 26.6875 67.128906 26.265625 C 66.726562 25.847656 66.414062 25.339844 66.195312 24.746094 C 65.976562 24.160156 65.867188 23.507812 65.867188 22.804688 C 65.867188 22.121094 65.984375 21.484375 66.203125 20.898438 C 66.429688 20.289062 66.75 19.78125 67.164062 19.355469 C 67.582031 18.925781 68.078125 18.585938 68.652344 18.339844 C 69.230469 18.09375 69.863281 17.96875 70.566406 17.96875 C 71.347656 17.96875 72.03125 18.121094 72.617188 18.417969 C 73.199219 18.722656 73.671875 19.121094 74.046875 19.628906 C 74.417969 20.136719 74.6875 20.714844 74.855469 21.359375 C 75.023438 22.007812 75.082031 22.6875 75.039062 23.398438 L 68.398438 23.398438 C 68.429688 24.203125 68.632812 24.796875 69.011719 25.15625 Z M 71.871094 20.355469 C 71.570312 20.027344 71.105469 19.859375 70.492188 19.859375 C 70.089844 19.859375 69.753906 19.925781 69.484375 20.0625 C 69.214844 20.203125 69.003906 20.367188 68.84375 20.5625 C 68.683594 20.765625 68.574219 20.976562 68.507812 21.203125 C 68.441406 21.425781 68.40625 21.621094 68.390625 21.804688 L 72.5 21.804688 C 72.382812 21.164062 72.171875 20.679688 71.871094 20.355469 Z M 71.871094 20.355469" style="stroke:none;fill-rule:nonzero;fill:rgb(0%,0%,0%);fill-opacity:1;"></path>
<path d="M 82.703125 26.1875 C 82.40625 26.679688 82.019531 27.042969 81.539062 27.257812 C 81.054688 27.476562 80.515625 27.585938 79.910156 27.585938 C 79.226562 27.585938 78.621094 27.457031 78.09375 27.1875 C 77.570312 26.917969 77.136719 26.5625 76.804688 26.105469 C 76.46875 25.652344 76.210938 25.128906 76.035156 24.542969 C 75.863281 23.957031 75.78125 23.339844 75.78125 22.703125 C 75.78125 22.085938 75.867188 21.5 76.035156 20.925781 C 76.203125 20.355469 76.46875 19.855469 76.804688 19.410156 C 77.136719 18.976562 77.570312 18.621094 78.070312 18.363281 C 78.582031 18.09375 79.171875 17.960938 79.851562 17.960938 C 80.398438 17.960938 80.917969 18.078125 81.40625 18.3125 C 81.902344 18.542969 82.289062 18.875 82.574219 19.324219 L 82.609375 19.324219 L 82.609375 14.730469 L 85.132812 14.730469 L 85.132812 27.355469 L 82.734375 27.355469 L 82.734375 26.1875 Z M 82.59375 21.664062 C 82.523438 21.316406 82.40625 21.011719 82.230469 20.746094 C 82.054688 20.476562 81.835938 20.265625 81.558594 20.101562 C 81.289062 19.933594 80.9375 19.855469 80.53125 19.855469 C 80.121094 19.855469 79.765625 19.933594 79.480469 20.101562 C 79.195312 20.265625 78.96875 20.484375 78.792969 20.753906 C 78.625 21.019531 78.503906 21.332031 78.421875 21.679688 C 78.34375 22.027344 78.304688 22.390625 78.304688 22.765625 C 78.304688 23.121094 78.347656 23.476562 78.429688 23.824219 C 78.511719 24.179688 78.648438 24.492188 78.832031 24.773438 C 79.011719 25.050781 79.246094 25.273438 79.523438 25.449219 C 79.800781 25.621094 80.136719 25.703125 80.53125 25.703125 C 80.945312 25.703125 81.289062 25.621094 81.574219 25.457031 C 81.851562 25.289062 82.078125 25.070312 82.246094 24.789062 C 82.414062 24.511719 82.53125 24.195312 82.601562 23.847656 C 82.675781 23.492188 82.710938 23.128906 82.710938 22.753906 C 82.703125 22.375 82.667969 22.011719 82.59375 21.664062 Z M 82.59375 21.664062" style="stroke:none;fill-rule:nonzero;fill:rgb(0%,0%,0%);fill-opacity:1;"></path>
<path d="M 21.023438 124.390625 C 20.898438 123.507812 20.046875 122.835938 19.066406 122.835938 C 17.300781 122.835938 16.640625 124.328125 16.640625 125.886719 C 16.640625 127.363281 17.300781 128.855469 19.066406 128.855469 C 20.273438 128.855469 20.949219 128.035156 21.097656 126.863281 L 23.007812 126.863281 C 22.804688 129.082031 21.265625 130.5 19.066406 130.5 C 16.296875 130.5 14.667969 128.441406 14.667969 125.886719 C 14.667969 123.246094 16.296875 121.191406 19.066406 121.191406 C 21.039062 121.191406 22.6875 122.335938 22.925781 124.390625 Z M 21.023438 124.390625" style="stroke:none;fill-rule:nonzero;fill:rgb(0%,0%,0%);fill-opacity:1;"></path>
<path d="M 27.113281 123.683594 C 29.15625 123.683594 30.46875 125.023438 30.46875 127.082031 C 30.46875 129.125 29.15625 130.464844 27.113281 130.464844 C 25.085938 130.464844 23.765625 129.117188 23.765625 127.082031 C 23.765625 125.03125 25.085938 123.683594 27.113281 123.683594 Z M 27.113281 129.136719 C 28.332031 129.136719 28.691406 128.101562 28.691406 127.085938 C 28.691406 126.050781 28.324219 125.023438 27.113281 125.023438 C 25.910156 125.023438 25.546875 126.058594 25.546875 127.085938 C 25.546875 128.101562 25.910156 129.136719 27.113281 129.136719 Z M 27.113281 129.136719" style="stroke:none;fill-rule:nonzero;fill:rgb(0%,0%,0%);fill-opacity:1;"></path>
<path d="M 31.570312 123.847656 L 33.265625 123.847656 L 33.265625 125.042969 L 33.292969 125.042969 C 33.613281 124.234375 34.496094 123.675781 35.367188 123.675781 C 35.488281 123.675781 35.644531 123.695312 35.753906 123.734375 L 35.753906 125.378906 C 35.585938 125.339844 35.320312 125.320312 35.109375 125.320312 C 33.804688 125.320312 33.351562 126.253906 33.351562 127.386719 L 33.351562 130.285156 L 31.570312 130.285156 Z M 31.570312 123.847656" style="stroke:none;fill-rule:nonzero;fill:rgb(0%,0%,0%);fill-opacity:1;"></path>
<path d="M 36.445312 123.855469 L 38.136719 123.855469 L 38.136719 124.675781 L 38.160156 124.675781 C 38.582031 123.992188 39.285156 123.683594 40.085938 123.683594 C 42.121094 123.683594 43.03125 125.3125 43.03125 127.136719 C 43.03125 128.855469 42.085938 130.464844 40.1875 130.464844 C 39.414062 130.464844 38.671875 130.132812 38.246094 129.492188 L 38.21875 129.492188 L 38.21875 132.558594 L 36.4375 132.558594 L 36.4375 123.855469 Z M 41.253906 127.09375 C 41.253906 126.074219 40.835938 125.015625 39.699219 125.015625 C 38.53125 125.015625 38.160156 126.050781 38.160156 127.09375 C 38.160156 128.136719 38.5625 129.136719 39.714844 129.136719 C 40.882812 129.136719 41.253906 128.136719 41.253906 127.09375 Z M 41.253906 127.09375" style="stroke:none;fill-rule:nonzero;fill:rgb(0%,0%,0%);fill-opacity:1;"></path>
<path d="M 46.9375 123.683594 C 48.980469 123.683594 50.300781 125.023438 50.300781 127.082031 C 50.300781 129.125 48.980469 130.464844 46.9375 130.464844 C 44.90625 130.464844 43.59375 129.117188 43.59375 127.082031 C 43.59375 125.03125 44.90625 123.683594 46.9375 123.683594 Z M 46.9375 129.136719 C 48.15625 129.136719 48.519531 128.101562 48.519531 127.085938 C 48.519531 126.050781 48.15625 125.023438 46.9375 125.023438 C 45.730469 125.023438 45.367188 126.058594 45.367188 127.085938 C 45.375 128.101562 45.738281 129.136719 46.9375 129.136719 Z M 46.9375 129.136719" style="stroke:none;fill-rule:nonzero;fill:rgb(0%,0%,0%);fill-opacity:1;"></path>
<path d="M 51.402344 123.847656 L 53.09375 123.847656 L 53.09375 125.042969 L 53.121094 125.042969 C 53.445312 124.234375 54.324219 123.675781 55.1875 123.675781 C 55.3125 123.675781 55.464844 123.695312 55.574219 123.734375 L 55.574219 125.378906 C 55.414062 125.339844 55.152344 125.320312 54.929688 125.320312 C 53.625 125.320312 53.171875 126.253906 53.171875 127.386719 L 53.171875 130.285156 L 51.394531 130.285156 L 51.394531 123.847656 Z M 51.402344 123.847656" style="stroke:none;fill-rule:nonzero;fill:rgb(0%,0%,0%);fill-opacity:1;"></path>
<path d="M 56.097656 125.835938 C 56.199219 124.175781 57.6875 123.683594 59.148438 123.683594 C 60.441406 123.683594 61.992188 123.964844 61.992188 125.507812 L 61.992188 128.855469 C 61.992188 129.441406 62.050781 130.023438 62.21875 130.289062 L 60.410156 130.289062 C 60.351562 130.085938 60.292969 129.878906 60.285156 129.667969 C 59.722656 130.253906 58.898438 130.464844 58.105469 130.464844 C 56.878906 130.464844 55.902344 129.855469 55.902344 128.535156 C 55.902344 127.082031 57.003906 126.734375 58.105469 126.582031 C 59.199219 126.421875 60.214844 126.457031 60.214844 125.734375 C 60.214844 124.972656 59.679688 124.863281 59.0625 124.863281 C 58.382812 124.863281 57.945312 125.140625 57.878906 125.835938 Z M 60.207031 127.144531 C 59.898438 127.40625 59.28125 127.421875 58.726562 127.523438 C 58.171875 127.632812 57.675781 127.820312 57.675781 128.472656 C 57.675781 129.132812 58.183594 129.289062 58.769531 129.289062 C 60.15625 129.289062 60.214844 128.195312 60.214844 127.8125 L 60.214844 127.144531 Z M 60.207031 127.144531" style="stroke:none;fill-rule:nonzero;fill:rgb(0%,0%,0%);fill-opacity:1;"></path>
<path d="M 65.582031 123.855469 L 66.886719 123.855469 L 66.886719 125.039062 L 65.582031 125.039062 L 65.582031 128.226562 C 65.582031 128.828125 65.734375 128.972656 66.335938 128.972656 C 66.523438 128.972656 66.699219 128.957031 66.886719 128.921875 L 66.886719 130.304688 C 66.589844 130.355469 66.195312 130.371094 65.84375 130.371094 C 64.757812 130.371094 63.800781 130.117188 63.800781 128.839844 L 63.800781 125.042969 L 62.722656 125.042969 L 62.722656 123.863281 L 63.800781 123.863281 L 63.800781 121.9375 L 65.582031 121.9375 Z M 65.582031 123.855469" style="stroke:none;fill-rule:nonzero;fill:rgb(0%,0%,0%);fill-opacity:1;"></path>
<path d="M 70.011719 122.863281 L 68.230469 122.863281 L 68.230469 121.40625 L 70.011719 121.40625 Z M 68.230469 123.855469 L 70.011719 123.855469 L 70.011719 130.289062 L 68.230469 130.289062 Z M 68.230469 123.855469" style="stroke:none;fill-rule:nonzero;fill:rgb(0%,0%,0%);fill-opacity:1;"></path>
<path d="M 74.546875 123.683594 C 76.589844 123.683594 77.910156 125.023438 77.910156 127.082031 C 77.910156 129.125 76.589844 130.464844 74.546875 130.464844 C 72.519531 130.464844 71.207031 129.117188 71.207031 127.082031 C 71.207031 125.03125 72.519531 123.683594 74.546875 123.683594 Z M 74.546875 129.136719 C 75.765625 129.136719 76.132812 128.101562 76.132812 127.085938 C 76.132812 126.050781 75.765625 125.023438 74.546875 125.023438 C 73.34375 125.023438 72.980469 126.058594 72.980469 127.085938 C 72.980469 128.101562 73.34375 129.136719 74.546875 129.136719 Z M 74.546875 129.136719" style="stroke:none;fill-rule:nonzero;fill:rgb(0%,0%,0%);fill-opacity:1;"></path>
<path d="M 79.058594 123.855469 L 80.75 123.855469 L 80.75 124.753906 L 80.785156 124.753906 C 81.238281 124.03125 82.011719 123.683594 82.769531 123.683594 C 84.660156 123.683594 85.140625 124.738281 85.140625 126.335938 L 85.140625 130.289062 L 83.359375 130.289062 L 83.359375 126.652344 C 83.359375 125.59375 83.046875 125.074219 82.222656 125.074219 C 81.253906 125.074219 80.84375 125.609375 80.84375 126.921875 L 80.84375 130.296875 L 79.0625 130.296875 L 79.0625 123.855469 Z M 79.058594 123.855469" style="stroke:none;fill-rule:nonzero;fill:rgb(0%,0%,0%);fill-opacity:1;"></path>
</g>
</svg>
